<svg xmlns="http://www.w3.org/2000/svg" version="1.1" xmlns:xlink="http://www.w3.org/1999/xlink" xmlns:svgjs="http://svgjs.dev/svgjs" width="1000" height="305" viewBox="0 0 1000 305"><g transform="matrix(1,0,0,1,-0.6060606060606233,-0.059531914533664576)"><svg viewBox="0 0 396 121" data-background-color="#ffffff" preserveAspectRatio="xMidYMid meet" height="305" width="1000" xmlns="http://www.w3.org/2000/svg" xmlns:xlink="http://www.w3.org/1999/xlink"><g id="tight-bounds" transform="matrix(1,0,0,1,0.2400000000000091,0.023620375561051787)"><svg viewBox="0 0 395.52 120.95276018099547" height="120.95276018099547" width="395.52"><g><svg viewBox="0 0 395.52 120.95276018099547" height="120.95276018099547" width="395.52"><g><svg viewBox="0 0 395.52 120.95276018099547" height="120.95276018099547" width="395.52"><g id="textblocktransform"><svg viewBox="0 0 395.52 120.95276018099547" height="120.95276018099547" width="395.52" id="textblock"><g><svg viewBox="0 0 395.52 120.95276018099547" height="120.95276018099547" width="395.52"><g transform="matrix(1,0,0,1,0,0)"><svg width="395.52" viewBox="1.7599999904632568 -37.209999084472656 129.48001098632812 39.599998474121094" height="120.95276018099547" data-palette-color="#ea3c12"><path d="M34.86-5.32L34.86-5.32Q34.72-4.05 34.45-2.83 34.18-1.61 33.79-0.66 33.4 0.29 32.79 0.85 32.18 1.42 31.4 1.42L31.4 1.42Q30.62 1.42 29.98 0.22 29.35-0.98 28.78-2.95 28.22-4.93 27.76-7.42 27.29-9.91 26.93-12.48 26.56-15.04 26.32-17.48 26.07-19.92 25.93-21.73L25.93-21.73Q25.63-19.87 25.24-17.58 24.85-15.28 24.32-12.92 23.78-10.55 23.14-8.28 22.51-6.01 21.78-4.22 21.04-2.44 20.21-1.37 19.38-0.29 18.46-0.29L18.46-0.29Q17.63-0.29 16.8-1.42 15.97-2.54 15.19-4.37 14.4-6.2 13.72-8.45 13.04-10.69 12.45-12.96 11.87-15.23 11.43-17.26 10.99-19.29 10.74-20.65L10.74-20.65Q10.74-19.63 10.72-18.38 10.69-17.14 10.69-16.6L10.69-16.6Q10.69-16.36 10.67-14.99 10.64-13.62 10.5-11.72 10.35-9.81 10.06-7.64 9.77-5.47 9.2-3.61 8.64-1.76 7.81-0.49 6.98 0.78 5.76 0.88L5.76 0.88Q4.79 0.44 4.13-0.61 3.47-1.66 3.03-3.08 2.59-4.49 2.34-6.1 2.1-7.71 1.95-9.25 1.81-10.79 1.78-12.11 1.76-13.43 1.76-14.26L1.76-14.26Q1.76-15.72 1.93-17.94 2.1-20.17 2.49-22.61 2.88-25.05 3.52-27.49 4.15-29.93 5.05-31.86 5.96-33.79 7.15-35.01 8.35-36.23 9.91-36.23L9.91-36.23Q10.64-36.23 11.47-35.4 12.3-34.57 13.13-33.23 13.96-31.88 14.75-30.22 15.53-28.56 16.24-26.88 16.94-25.2 17.48-23.66 18.02-22.12 18.36-21.04L18.36-21.04Q18.75-22.22 19.34-23.78 19.92-25.34 20.63-27.03 21.34-28.71 22.19-30.35 23.05-31.98 23.97-33.28 24.9-34.57 25.85-35.38 26.81-36.18 27.78-36.18L27.78-36.18Q29.49-36.18 30.71-34.91 31.93-33.64 32.76-31.62 33.59-29.59 34.08-27.08 34.57-24.56 34.84-22.09 35.11-19.63 35.18-17.48 35.25-15.33 35.25-14.01L35.25-14.01Q35.25-13.48 35.25-12.55 35.25-11.62 35.23-10.45 35.21-9.28 35.11-7.96 35.01-6.64 34.86-5.32ZM63.38-7.23L63.38-7.23Q63.38-6.25 63.21-4.88 63.03-3.52 62.55-2.27 62.06-1.03 61.23-0.17 60.4 0.68 59.03 0.68L59.03 0.68Q57.22 0.68 56.32-0.63 55.42-1.95 55.03-3.78 54.64-5.62 54.56-7.52 54.49-9.42 54.44-10.55L54.44-10.55Q50.93-9.96 47.51-9.52L47.51-9.52Q47.41-8.4 47.09-6.74 46.77-5.08 46.12-3.54 45.46-2 44.41-0.88 43.36 0.24 41.84 0.24L41.84 0.24Q40.67 0.24 40.01-0.61 39.35-1.46 39.01-2.64 38.67-3.81 38.6-5.05 38.52-6.3 38.52-7.13L38.52-7.13Q38.52-9.91 38.96-12.62 39.4-15.33 39.99-18.02L39.99-18.02Q40.28-19.43 40.77-21.34 41.26-23.24 41.97-25.27 42.67-27.29 43.63-29.27 44.58-31.25 45.8-32.81 47.02-34.38 48.58-35.35 50.14-36.33 52.05-36.33L52.05-36.33Q53.9-36.33 55.27-35.5 56.64-34.67 57.66-33.3 58.69-31.93 59.37-30.2 60.06-28.47 60.52-26.68 60.98-24.9 61.3-23.19 61.62-21.48 61.86-20.17L61.86-20.17Q62.5-16.99 62.94-13.75 63.38-10.5 63.38-7.23ZM53.95-17.68L53.95-19.09Q53.95-19.68 53.88-21.02 53.81-22.36 53.56-23.71 53.32-25.05 52.81-26.1 52.29-27.15 51.41-27.15L51.41-27.15Q50.93-27.15 50.49-26.49 50.05-25.83 49.7-24.83 49.36-23.83 49.09-22.61 48.83-21.39 48.63-20.26 48.44-19.14 48.34-18.24 48.24-17.33 48.19-16.94L48.19-16.94Q51.12-17.19 53.95-17.68L53.95-17.68ZM88.42-11.72L88.42-11.72Q87.98-9.52 87.03-7.15 86.08-4.79 84.59-2.83 83.1-0.88 81.05 0.37 79 1.61 76.36 1.61L76.36 1.61Q74.41 1.61 72.85 0.83 71.28 0.05 70.01-1.27 68.75-2.59 67.82-4.3 66.89-6.01 66.28-7.84 65.67-9.67 65.38-11.47 65.08-13.28 65.08-14.84L65.08-14.84Q65.08-17.04 65.5-19.56 65.91-22.07 66.74-24.54 67.57-27 68.84-29.27 70.11-31.54 71.85-33.28 73.58-35.01 75.75-36.06 77.92-37.11 80.61-37.11L80.61-37.11Q82.32-37.11 83.78-36.45 85.25-35.79 86.32-34.69 87.4-33.59 88.01-32.08 88.62-30.57 88.62-28.91L88.62-28.91 88.62-28.47Q88.62-27.59 88.54-26.29 88.47-25 88.08-23.83 87.69-22.66 86.91-21.8 86.13-20.95 84.71-20.95L84.71-20.95Q83-20.95 82.12-21.73 81.25-22.51 81.25-24.32L81.25-24.32Q81.25-25 81.29-25.68 81.34-26.37 81.34-27.05L81.34-27.05Q81.34-28.08 81-28.64 80.66-29.2 79.58-29.2L79.58-29.2Q78.36-29.2 77.39-28.42 76.41-27.64 75.68-26.37 74.95-25.1 74.41-23.49 73.87-21.88 73.53-20.24 73.19-18.6 73.04-17.09 72.9-15.58 72.9-14.5L72.9-14.5Q72.9-13.62 72.99-12.48 73.09-11.33 73.41-10.28 73.73-9.23 74.36-8.5 75-7.76 76.02-7.76L76.02-7.76Q77.78-7.76 78.85-8.86 79.93-9.96 80.32-11.67L80.32-11.67Q79.63-11.77 78.97-11.99 78.32-12.21 77.75-12.62 77.19-13.04 76.85-13.65 76.51-14.26 76.51-15.09L76.51-15.09Q76.51-16.6 77.53-17.46 78.56-18.31 79.95-18.75 81.34-19.19 82.81-19.31 84.27-19.43 85.15-19.43L85.15-19.43Q85.79-19.43 87.01-19.34 88.23-19.24 89.42-18.92 90.62-18.6 91.5-18.02 92.38-17.43 92.38-16.5L92.38-16.5Q92.38-14.65 91.38-13.31 90.38-11.96 88.42-11.72ZM108.98-33.15L108.98-33.15Q108.98-32.23 108.56-31.49 108.15-30.76 107.46-30.25 106.78-29.74 105.95-29.39 105.12-29.05 104.34-28.91L104.34-28.91Q104.24-23.39 103.92-18.26 103.61-13.13 102.92-7.67L102.92-7.67 103.22-7.67Q104-7.67 104.75-7.5 105.51-7.32 106.12-6.91 106.73-6.49 107.1-5.88 107.46-5.27 107.46-4.39L107.46-4.39Q107.46-3.27 106.76-2.44 106.05-1.61 104.9-1.03 103.75-0.44 102.34-0.05 100.92 0.34 99.5 0.56 98.09 0.78 96.82 0.88 95.55 0.98 94.77 0.98L94.77 0.98Q94.18 0.98 93.33 0.93 92.47 0.88 91.72 0.63 90.96 0.39 90.42-0.1 89.89-0.59 89.89-1.42L89.89-1.42Q89.89-2.44 90.3-3.25 90.72-4.05 91.4-4.69 92.08-5.32 92.94-5.71 93.79-6.1 94.67-6.3L94.67-6.3Q95.01-8.98 95.31-11.65 95.6-14.31 95.7-17.04L95.7-17.04Q95.79-19.82 95.89-22.53 95.99-25.24 96.09-27.98L96.09-27.98Q95.74-27.93 95.45-27.91 95.16-27.88 94.91-27.88L94.91-27.88Q94.23-27.88 93.45-28.03 92.67-28.17 91.98-28.54 91.3-28.91 90.84-29.44 90.37-29.98 90.37-30.81L90.37-30.81Q90.37-32.47 91.76-33.54 93.16-34.62 95.09-35.21 97.01-35.79 99.02-36.01 101.02-36.23 102.24-36.23L102.24-36.23Q102.92-36.23 104.05-36.13 105.17-36.04 106.27-35.69 107.37-35.35 108.17-34.77 108.98-34.18 108.98-33.15ZM131.24-24.85L131.24-24.85Q131.24-23.93 131.02-22.9 130.8-21.88 130.31-21 129.82-20.12 129.04-19.53 128.26-18.95 127.14-18.95L127.14-18.95Q125.43-18.95 124.6-19.56 123.77-20.17 123.43-21.09 123.09-22.02 123.06-23.07 123.04-24.12 122.99-25.05 122.94-25.98 122.67-26.59 122.4-27.2 121.52-27.2L121.52-27.2Q120.55-27.2 119.81-26.49 119.08-25.78 118.54-24.66 118.01-23.54 117.64-22.12 117.28-20.7 117.06-19.31 116.84-17.92 116.74-16.67 116.64-15.43 116.64-14.65L116.64-14.65Q116.64-13.62 116.71-12.21 116.79-10.79 117.18-9.5 117.57-8.2 118.35-7.3 119.13-6.4 120.6-6.4L120.6-6.4Q121.57-6.4 122.5-6.64 123.43-6.88 124.36-7.2 125.28-7.52 126.24-7.76 127.19-8.01 128.16-8.01L128.16-8.01Q129.29-8.01 130.02-7.1 130.75-6.2 130.75-5.08L130.75-5.08Q130.75-3.52 129.78-2.17 128.8-0.83 127.36 0.2 125.92 1.22 124.23 1.81 122.55 2.39 121.18 2.39L121.18 2.39Q117.67 2.39 115.22 0.81 112.78-0.78 111.27-3.3 109.76-5.81 109.1-8.91 108.44-12.01 108.44-15.09L108.44-15.09Q108.44-17.14 108.83-19.58 109.22-22.02 110-24.49 110.78-26.95 111.98-29.25 113.17-31.54 114.78-33.3 116.4-35.06 118.42-36.13 120.45-37.21 122.89-37.21L122.89-37.21Q125.28-37.21 126.89-36.01 128.51-34.81 129.48-32.98 130.46-31.15 130.85-28.98 131.24-26.81 131.24-24.85Z" opacity="1" transform="matrix(1,0,0,1,0,0)" fill="#ea3c12" class="wordmark-text-0" data-fill-palette-color="primary" id="text-0"></path></svg></g></svg></g></svg></g></svg></g><g></g></svg></g><defs></defs></svg><rect width="395.52" height="120.95276018099547" fill="none" stroke="none" visibility="hidden"></rect></g></svg></g></svg>